<?xml version="1.0" encoding="UTF-8"?>
<!DOCTYPE svg PUBLIC "-//W3C//DTD SVG 1.1//EN" "http://www.w3.org/Graphics/SVG/1.1/DTD/svg11.dtd">
<!-- Creator: CorelDRAW 2018 (64 Bit Versão de avaliação) -->
<svg xmlns="http://www.w3.org/2000/svg" xml:space="preserve" width="68.3129mm" height="8.7063mm" version="1.1" style="shape-rendering:geometricPrecision; text-rendering:geometricPrecision; image-rendering:optimizeQuality; fill-rule:evenodd; clip-rule:evenodd"
viewBox="0 0 7407.95 944.12"
 xmlns:xlink="http://www.w3.org/1999/xlink">
 <defs>
  <style type="text/css">
   <![CDATA[
    .fil0 {fill:#686B89}
   ]]>
  </style>
 </defs>
 <g id="Camada_x0020_1">
  <metadata id="CorelCorpID_0Corel-Layer"/>
  <rect class="fil0" x="0" y="1.39" width="834.16" height="938.53"/>
  <path class="fil0" d="M1069.21 197.83l348.77 0 126.9 545.88 -475.67 0 0 -545.88zm-175.6 -197.82l669.08 0 164.43 733.1 2.24 208.42 -835.76 0 0 -941.52z"/>
  <rect class="fil0" x="1796.38" y="2.52" width="171.15" height="936.51"/>
  <polygon class="fil0" points="2040.52,2.52 2876.29,2.52 2876.29,200.87 2211.67,200.87 2211.67,351.52 2874.07,351.52 2874.07,944.04 2040.52,944.04 2040.52,743.17 2700.69,743.17 2700.69,547.33 2042.72,547.33 "/>
  <polygon class="fil0" points="2936.91,941.53 2936.91,5.02 3105.9,5.02 3599.3,650.28 3599.3,5.02 3777.12,5.02 3777.12,941.53 3594.84,941.53 3103.63,298.78 3103.63,944.11 "/>
  <path class="fil0" d="M3836.97 2.52l833.49 0 0 939.02 -833.49 0 0 -939.02zm171.6 193.33l490.29 0 0 552.36 -490.29 0 0 -552.36z"/>
  <path class="fil0" d="M4755.27 941.53l0 -941.53 840.22 0 0 547.35 -164.51 0 162.27 396.69 -211.17 0 -164.48 -394.18 -286.73 0 0 389.2 -175.6 2.48zm175.6 -738.16l484.56 0 0 145.63 -484.56 0 0 -145.63z"/>
  <polygon class="fil0" points="5668.06,2.52 6506.04,2.52 6506.04,198.42 6172.6,198.42 6172.6,941.53 5999.25,941.53 5999.25,203.37 5665.83,203.37 "/>
  <polygon class="fil0" points="6574.4,0 7407.95,0 7407.95,203.37 6747.78,203.37 6747.78,349 7403.49,349 7403.49,549.87 6747.78,549.87 6747.78,740.69 7405.72,740.69 7405.72,944.06 6572.15,944.06 "/>
 </g>
</svg>
